<svg width="3110" height="763" viewBox="0 0 3110 763" fill="none" xmlns="http://www.w3.org/2000/svg">
<g clip-path="url(#clip0_12_2071)">
<path d="M799.079 490.489C799.079 335.188 908.379 218.028 1054.72 218.028C1148.66 218.028 1211.88 263.422 1238.06 307.922V218.028H1331.11V750.286H1238.06V673.057C1211.88 717.606 1148.66 763 1054.72 763C908.379 763 799.079 645.841 799.079 490.489ZM1239.88 490.489C1239.88 382.419 1167.63 300.671 1062.82 300.671C958.015 300.671 890.302 382.419 890.302 490.489C890.302 598.56 958.954 680.358 1062.82 680.358C1166.69 680.358 1239.88 598.609 1239.88 490.489Z" fill="white"/>
<path d="M1516.22 673.057V750.286H1423.17V0H1516.22V307.922C1542.45 263.422 1605.66 218.028 1699.6 218.028C1845.95 218.028 1955.2 335.188 1955.2 490.489C1955.2 645.791 1845.95 763 1699.6 763C1605.66 763 1542.45 717.606 1516.22 673.057ZM1864.02 490.489C1864.02 382.419 1795.37 300.671 1691.5 300.671C1587.64 300.671 1514.44 382.419 1514.44 490.489C1514.44 598.56 1586.75 680.358 1691.5 680.358C1796.26 680.358 1864.02 598.61 1864.02 490.489Z" fill="white"/>
<path d="M2113.29 0H2020.24V750.286H2113.29V0Z" fill="white"/>
<path d="M2178.34 490.489C2178.34 334.244 2286.7 218.028 2437.59 218.028C2588.47 218.028 2695.9 334.293 2695.9 490.489C2695.9 502.309 2695.9 515.917 2694.12 528.632H2271.39C2281.32 617.631 2345.48 683.933 2437.59 683.933C2508.02 683.933 2563.14 651.254 2582.1 608.542H2676.93C2648.93 698.435 2555.93 762.95 2437.59 762.95C2286.75 762.95 2178.34 646.685 2178.34 490.439M2437.59 296.995C2344.54 296.995 2281.32 362.404 2271.39 452.347H2604.72C2593.86 361.51 2530.64 296.995 2437.59 296.995Z" fill="white"/>
<path d="M2853.06 217.979V310.653C2875.63 271.567 2937.96 217.979 3039.11 217.979C3070.72 217.979 3091.51 220.71 3109.54 227.067V316.067C3089.68 306.978 3064.4 301.565 3032.79 301.565C2927.09 301.565 2853.01 386.938 2853.01 481.401V750.286H2759.96V217.979H2853.01H2853.06Z" fill="white"/>
<path d="M632.585 222.597H0V299.727L632.585 298.833V222.597Z" fill="white"/>
<path d="M775.964 750.286H683.062C526.002 750.286 398.724 622.3 398.724 464.415V12.6646H477.452V448.672C477.452 571.542 576.528 671.12 698.669 671.12H775.964V750.286Z" fill="white"/>
</g>
<defs>
<clipPath id="clip0_12_2071">
<rect width="3109.58" height="763" fill="white"/>
</clipPath>
</defs>
</svg>
