<svg width="5678" height="530" viewBox="0 0 5678 530" fill="none" xmlns="http://www.w3.org/2000/svg">
<path d="M250.31 169.672H393.29L259.969 530H112.09L250.31 169.672Z" fill="black"/>
<path d="M608.967 124.21L0 122.527L50.1896 8.02979H682.578L638.516 95.1387C636.679 98.7711 634.165 102.02 631.11 104.71L608.967 124.21Z" fill="black"/>
<path d="M2064.52 344.801L2099.81 251.439H2239.93L2258.28 263.109L2391.73 521.523H2226.59L2162.94 353.137L2159.86 344.801H2064.52Z" fill="black"/>
<path d="M2331.42 8.02979H2513.51L2470.58 43.0407L2286.64 201.423H2117.38L2201.57 121.398L2331.42 8.02979Z" fill="black"/>
<path d="M2012.29 8.02979H2154.86L1964.69 521.97H1822.9L2012.29 8.02979Z" fill="black"/>
<path d="M1050.95 8.02979H1073.81H1077.83L1140.32 521.97H1071.44H995.843L958.555 198.36L950.156 127.396L650.61 521.97H597.373H489.859L883.999 8.02979H913.198H1050.95Z" fill="black"/>
<path d="M1762.32 329.244L1276.84 327.783L1320.83 208.789H1806.84L1763.98 325.744L1762.32 329.244Z" fill="black"/>
<path d="M1698.07 530L1212.59 528.539L1256.58 409.545H1742.59L1699.73 526.5L1698.07 530Z" fill="black"/>
<path d="M2984.36 8.03052H3147.9L2949.67 268.337L2758.04 515.295L2753.09 521.97H2584.59L2979.41 14.7051L2984.36 8.03052Z" fill="black"/>
<path d="M2695.27 281.687L2569.72 8.03052L2723.35 8.02979L2731.61 28.0541L2790.64 163.213L2695.27 281.687Z" fill="black"/>
<path d="M3543.53 290.13H3682.69C3682.69 290.13 3666.89 348.534 3649.56 382.866C3639.36 403.065 3633.7 414.739 3619.74 432.546C3606.19 449.822 3591.62 464.53 3579.98 472.29L3550.16 492.162C3538.51 499.923 3512.74 509.495 3487.21 515.346C3463.11 520.867 3424.25 521.97 3424.25 521.97H3238.7C3238.7 521.97 3207.95 520.279 3189 515.346L3187.85 515.047C3171.1 510.69 3160.92 508.042 3145.93 498.786C3131.12 489.644 3123.06 483.034 3112.8 468.978C3100.47 452.1 3096.55 439.876 3092.92 419.298C3088.86 396.335 3096.23 359.682 3096.23 359.682L3119.42 293.442H3255.27L3235.39 353.059C3235.39 353.059 3234.51 370.008 3238.7 379.554C3242.77 388.802 3247.15 393.414 3255.27 399.426C3263.19 405.289 3278.46 409.362 3278.46 409.362L3427.56 412.674C3427.56 412.674 3443.98 412.008 3454.07 409.362C3466.4 406.13 3473.22 403.075 3483.89 396.114C3497.68 387.118 3503.8 379.451 3513.71 366.306C3532.95 340.798 3543.53 290.13 3543.53 290.13Z" fill="black"/>
<path d="M3278.46 233.826H3139.3L3169.12 151.026C3169.12 151.026 3189.43 109.699 3208.88 88.0974C3226.73 68.2805 3239.1 58.8838 3261.9 45.0413C3288.18 29.0809 3305.03 22.977 3334.79 15.2333C3347.56 11.9109 3367.92 8.60924 3367.92 8.60924C3367.92 8.60924 3522.58 -12.8099 3616.43 11.9212C3629.49 15.3636 3637.16 16.4867 3649.56 21.8573C3663.4 27.8563 3671.05 32.1299 3682.69 41.7293C3694.71 51.6413 3701.14 58.2095 3709.2 71.5374C3716.41 83.4582 3719.09 91.1377 3722.45 104.657C3728.35 128.392 3726.13 143.14 3722.51 167.232L3722.45 167.586C3718.62 193.07 3702.57 230.514 3702.57 230.514H3566.73C3566.73 230.514 3590.52 187.932 3583.29 160.962C3581.49 154.233 3580.34 150.321 3576.67 144.402C3571.84 136.629 3567.68 132.96 3560.1 127.842C3545.79 118.184 3517.03 117.905 3517.03 117.905H3404.37C3404.37 117.905 3375.15 118.196 3357.98 124.53C3345.49 129.14 3338.55 132.75 3328.16 141.09C3317.44 149.7 3312.82 156.297 3304.97 167.586C3289.06 190.461 3278.46 233.826 3278.46 233.826Z" fill="black"/>
<path d="M4269.03 8.02979H4411.72H4416.7L4277.33 392.284C4277.33 392.284 4261.54 429.22 4245.81 449.087C4228.63 470.777 4216.39 481.688 4192.71 495.866C4171.2 508.746 4157 512.162 4132.98 519.256C4058.36 541.297 3933.88 522.597 3933.88 522.597L3973.7 414.003C3973.7 414.003 4046.94 427.159 4089.85 412.333C4101.92 408.161 4109.53 406.721 4119.71 398.967C4129.24 391.709 4139.62 375.578 4139.62 375.578L4269.03 8.02979Z" fill="black"/>
<path d="M3891.64 8.02979H4033.43L3907.34 362.212C3907.34 362.212 3904.43 384.106 3910.66 395.626C3916.37 406.194 3933.88 412.333 3933.88 412.333L3894.07 522.597H3867.52L3824.38 512.573L3794.52 495.866C3794.52 495.866 3772.16 473.822 3764.65 455.77C3754.12 430.469 3759.67 385.154 3759.67 385.154L3891.64 8.02979Z" fill="black"/>
<path d="M4922.26 8.02979H5067.14L4903.95 453.556L4829.01 275.012L4826.78 270.006L4922.26 8.02979Z" fill="black"/>
<path d="M4344.41 521.97L4532.59 8.02979H4635.84H4662.48L4872.3 521.97H4861.3H4729.09H4722.43L4595.87 228.29L4490.96 521.97H4344.41Z" fill="black"/>
<path d="M5057.95 471.911C5049.29 460.174 5045.64 452.423 5041.21 438.538C5034.06 416.149 5034.18 400.208 5036.19 376.798C5039.22 341.474 5064.65 291.698 5064.65 291.698H5203.62C5203.62 291.698 5184.29 325.063 5181.85 348.432C5180.77 358.802 5178.89 365.129 5181.85 375.13C5186.3 390.182 5192.9 404.634 5208.64 405.165C5307.42 408.502 5409.55 408.502 5409.55 408.502L5459.78 291.698H5597.07L5516.7 511.958L5513.35 521.97H5151.71C5151.71 521.97 5122.11 516.591 5104.83 508.621C5095.27 504.207 5089.86 501.535 5081.39 495.272C5071 487.581 5065.63 482.302 5057.95 471.911Z" fill="black"/>
<path d="M5222.03 231.627L5084.74 228.29C5084.74 228.29 5100.15 171.101 5118.23 138.183C5126.41 123.277 5131.25 114.925 5141.67 101.473C5156.36 82.5064 5166.04 72.5665 5185.2 58.0889C5204.33 43.6327 5216.63 37.2857 5238.77 28.0534C5270.97 14.634 5325.84 8.02979 5325.84 8.02979H5677.43L5637.25 88.1243L5620.51 121.497C5620.51 121.497 5429.64 124.834 5317.47 124.834C5306.29 124.834 5292.01 129.323 5282.31 134.846C5270.24 141.718 5264.72 147.82 5255.52 158.207C5234.61 181.821 5222.03 231.627 5222.03 231.627Z" fill="black"/>
<path d="M1834.59 120.454L1349.11 119.091L1393.1 8.02979H1879.11L1836.25 117.188L1834.59 120.454Z" fill="black"/>
</svg>
