<svg width="666" height="110" viewBox="0 0 666 110" fill="none" xmlns="http://www.w3.org/2000/svg">
<path d="M623.617 44.1829C623.865 44.4493 624.158 44.7224 624.484 44.9888C624.813 45.2584 625.138 45.4928 625.46 45.6758L624.474 46.8731L622.637 45.3708L623.617 44.1829Z" fill="#DE301E"/>
<path d="M624.013 41.8296C624.445 41.287 625.345 41.5439 626.528 42.5102C627.691 43.4604 628.116 44.2919 627.675 44.828C627.233 45.3641 626.334 45.1106 625.171 44.1572C623.987 43.1877 623.562 42.3593 624.013 41.8296Z" fill="#DE301E"/>
<path d="M617.929 34.7768L617.262 35.9229L614.989 34.6128L615.657 33.4668L617.929 34.7768Z" fill="#DE301E"/>
<path fill-rule="evenodd" clip-rule="evenodd" d="M609.066 25.9263C628.229 25.9264 643.868 41.4996 643.868 60.4882C643.868 66.4915 642.317 72.1064 639.604 77.0086C639.449 77.6246 639.333 78.2637 639.256 78.8995C639.043 80.6939 640.049 82.2575 641.835 82.6234C642.627 82.778 643.501 82.778 644.332 82.5467L654.234 79.9008C655.843 79.4769 657.355 79.0503 658.982 78.7611C662.412 78.1446 665.532 80.6327 665.764 84.01C665.976 87.3872 663.266 90.2252 659.756 90.1099C657.993 90.0519 656.307 89.9366 654.525 89.7439L643.382 88.6042C642.666 88.527 641.947 89.2975 641.85 89.8979C641.754 90.4372 642.044 91.3456 642.743 91.5769C644.545 92.1741 645.419 94.0071 644.662 95.7054C643.907 97.423 641.773 98.0776 640.261 96.9605L638.982 96.0134C638.189 95.436 637.219 95.3588 636.383 95.8208C635.629 96.2253 635.046 97.1338 635.201 98.097C635.568 100.546 636.132 102.922 636.984 105.275C637.699 107.243 636.925 109.307 634.833 109.888C632.993 110.389 630.843 109.157 630.688 107.108C630.534 105.044 630.321 101.359 628.712 100.161C626.949 98.8482 624.76 99.2721 623.249 100.739C622.201 101.744 621.156 102.688 619.973 103.481C617.843 104.928 614.955 104.078 613.792 101.937C612.55 99.6606 613.559 97.0538 615.903 95.8567C616.989 95.3169 617.84 94.5238 618.462 93.58C615.458 94.4085 612.299 94.8544 609.044 94.8544C590.171 94.8544 574.438 79.5703 574.438 60.4657C574.438 41.3614 590.171 25.9038 609.044 25.9038L609.066 25.9263ZM609.066 56.8834C607.342 56.8834 605.636 58.3118 605.636 60.4914C605.636 62.4789 607.361 64.1965 609.066 64.1965C611.062 64.196 612.786 62.4789 612.786 60.4914C612.786 58.3118 611.062 56.8834 609.066 56.8834ZM627.204 41.6885C625.386 40.199 623.758 39.8938 622.913 40.9339C622.43 41.5086 622.404 42.2342 622.791 43.0143L621.566 44.4973L619.597 42.8859L618.895 43.7364L626.833 50.2341L627.536 49.3836L625.528 47.7398L626.759 46.2469C627.588 46.462 628.293 46.3017 628.768 45.7271C629.622 44.6934 629.002 43.1588 627.204 41.6885ZM613.295 37.072L618.462 40.051L618.033 40.7893L612.876 37.8167L611.374 40.4011L618.026 44.2373L618.575 43.2936L613.104 40.1411L613.552 39.3672L618.72 42.3467L620.195 39.8047L620.199 39.8073L620.196 39.8042L620.195 39.8047L613.836 36.1377L613.295 37.072ZM623.968 38.3113L631.146 44.1891L631.849 43.3387L628.793 40.8376L629.664 39.7848L628.606 38.9176L627.736 39.9708L624.67 37.4603L623.968 38.3113ZM619.226 38.7284L620.422 39.4185L621.605 37.3801L622.961 38.1636L623.522 37.1973L622.166 36.4139L623.307 34.4525L622.111 33.7624L619.226 38.7284ZM613.256 34.8764L617.898 37.5505L620.354 33.3254L619.171 32.6415L618.455 33.8745L616.183 32.5645L616.898 31.332L616.895 31.3352L615.712 30.6514L613.256 34.8764Z" fill="#DE301E"/>
<path d="M622.768 107.33C623.407 106.887 624.28 107.041 624.725 107.657C625.17 108.293 625.015 109.163 624.396 109.606C623.758 110.049 622.884 109.895 622.44 109.278C621.995 108.643 622.149 107.773 622.768 107.33Z" fill="#DE301E"/>
<path d="M479.418 4.29522C482.654 1.34181 487.731 1.74635 490.464 5.35791C491.84 7.1717 493.062 8.96625 494.338 10.8957L502.226 22.9761C502.729 23.7466 504.067 23.8461 504.786 23.4577C505.423 23.111 506.084 22.1061 505.755 21.2202C504.901 18.9441 506.046 16.5681 508.392 15.9324C510.736 15.2968 513.121 16.9181 513.237 19.3291L513.314 21.3931C513.372 22.6676 514.068 23.6886 515.213 24.1541C516.241 24.5778 517.614 24.4236 518.487 23.4991C520.696 21.146 522.613 18.6549 524.299 15.8748C525.714 13.5601 528.425 12.6517 530.694 14.2729C532.689 15.7015 533.192 18.8475 531.235 20.6999C529.705 22.1477 527.168 24.424 526.198 26.607C529.685 26.7997 533.115 28.2858 535.771 31.0658L543.307 38.6712L550.65 31.0658C556.462 25.0819 565.899 25.0818 571.634 31.0658C577.348 36.854 577.348 46.4467 571.634 52.4306L558.573 65.7273V79.0244C558.572 87.3812 551.713 94.1159 543.323 94.1159C534.933 94.1159 528.17 87.3807 528.17 79.0244V65.7273L515.11 52.4306C513.772 51.0214 512.747 49.4191 512.028 47.7209C512.028 47.7209 512.008 47.6823 511.989 47.6633C511.39 46.7355 511.038 45.037 510.323 45.0369C509.607 45.0369 509.391 46.0997 509.295 47.4672V79.3104C509.295 87.6667 502.435 94.4019 494.142 94.4019C485.848 94.4014 478.795 87.6667 478.795 79.3104V76.0872C478.795 74.9475 477.845 74.0036 476.704 74.0036C475.563 74.0036 474.612 74.9507 474.612 76.0872V79.3104C474.612 87.8593 467.946 94.4019 459.459 94.4019C450.972 94.4019 444.287 87.84 444.287 79.3104V41.8907C444.287 33.4382 451.146 26.8763 459.459 26.8763C467.772 26.8763 474.612 33.4382 474.612 41.8907V45.3068C474.612 46.3501 475.563 47.2937 476.704 47.2938C477.845 47.2938 478.795 46.3469 478.795 45.3068V41.8907C478.796 33.6308 485.655 26.8764 494.142 26.8763C494.529 26.8763 494.915 26.8766 495.286 26.9151L484.63 19.1556C482.886 17.8811 481.239 16.7256 479.63 15.3356C476.22 12.4014 476.201 7.24859 479.456 4.27584L479.418 4.29522Z" fill="#DE301E"/>
<path d="M310.198 66.915C310.568 66.8189 310.955 66.8189 311.361 66.9536C311.771 67.0888 312.138 67.3196 312.486 67.6662C312.834 68.0161 313.067 68.3793 313.202 68.7866C313.337 69.1944 313.356 69.5797 313.26 69.9649C313.163 70.3529 312.95 70.7001 312.641 71.0081L312.622 70.9887C312.309 71.3161 311.961 71.528 311.574 71.6241C311.184 71.7206 310.797 71.7013 310.391 71.5666C309.982 71.432 309.615 71.2039 309.266 70.8541C308.918 70.5042 308.667 70.1222 308.551 69.7337C308.435 69.3452 308.415 68.9599 308.512 68.5746C308.628 68.1862 308.837 67.8395 309.15 67.531C309.463 67.223 309.811 67.011 310.198 66.915Z" fill="#DE301E"/>
<path d="M328.59 53.2356L327.078 54.7413L325.644 51.8071L328.59 53.2356Z" fill="#DE301E"/>
<path fill-rule="evenodd" clip-rule="evenodd" d="M298.149 3.36723C300.376 -0.260326 305.201 -1.07216 308.476 1.496C311.751 4.04493 312.138 8.82812 309.192 11.9164C307.7 13.4799 306.227 14.8894 304.598 16.3758C304.549 16.4198 295.453 24.5788 294.736 25.0597C294.117 25.4834 292.157 26.8153 293.533 26.7192C294.561 26.6421 295.335 26.642 295.915 26.6998C303.471 26.8732 308.451 31.3902 310.233 37.8171L304.518 46.8479C303.861 47.4258 304.809 48.0836 305.373 47.6984L321.959 31.2744C327.675 25.2904 337.306 25.2904 343.314 31.2744C349.323 37.2584 349.323 46.8478 343.314 52.5429L306.907 89.0952C302.333 94.5174 294.217 96.023 287.938 92.4145C283.46 89.6538 280.401 84.9087 280.401 79.2139V54.5686C280.401 51.2492 278.484 49.2039 276.585 47.9101C274.007 46.1541 269.977 46.4816 267.344 48.411C264.552 50.456 261.899 52.5397 258.702 53.9875C254.905 55.7244 250.505 53.4867 249.322 49.6441C248.081 45.5926 250.544 41.6151 254.689 40.6521L267.634 37.5635C270.016 37.0049 271.586 35.3258 271.779 32.8732C271.914 30.9824 271.431 29.3035 270.19 27.7787C268.059 25.172 265.693 22.8381 263.137 20.6391C259.069 17.1271 259.031 10.9696 263.079 7.51531C267.128 4.06101 273.33 5.00801 276.005 9.67576C276.701 10.8924 277.072 12.2053 277.594 13.4958C278.757 16.4107 280.153 19.1299 282.206 21.4476C283.679 23.1074 285.926 23.4543 287.709 22.122C288.521 21.525 289.201 20.7127 289.684 19.7881L295.322 8.63248C296.254 6.81866 297.085 5.10098 298.133 3.38348L298.152 3.36409L298.149 3.36723ZM306.617 71.5118C305.921 71.1652 305.221 71.0498 304.506 71.2038C303.771 71.3578 303.11 71.727 302.53 72.3049C302.024 72.8055 301.675 73.3673 301.501 74.0032C301.327 74.6385 301.327 75.2776 301.501 75.9134C301.675 76.5487 302.008 77.1266 302.53 77.631C303.052 78.1349 303.616 78.4815 304.254 78.6548C304.892 78.8281 305.534 78.8281 306.172 78.6548C306.791 78.4815 307.374 78.1317 307.877 77.631C308.325 77.1878 308.635 76.6834 308.809 76.1441C308.983 75.5856 309.021 75.0431 308.944 74.5043C308.866 73.9645 308.673 73.4607 308.383 73.0368L307.471 72.1283L304.641 74.947L305.433 75.7363L307.236 73.9425C307.526 74.4045 307.661 74.8698 307.622 75.3323C307.584 75.7975 307.371 76.2214 306.965 76.626C306.633 76.934 306.285 77.1653 305.898 77.2613C305.508 77.3772 305.121 77.3579 304.715 77.2425C304.305 77.1078 303.938 76.8798 303.59 76.5299C303.242 76.1801 303.03 75.8136 302.894 75.4283C302.759 75.0398 302.758 74.6551 302.855 74.2699C302.952 73.9007 303.165 73.5535 303.474 73.2455C303.768 72.9761 304.054 72.783 304.386 72.6869C304.718 72.5903 305.047 72.5903 305.395 72.6869V72.6901L305.415 72.7095L306.617 71.5118ZM311.848 65.5858C311.191 65.4124 310.549 65.4124 309.911 65.5858C309.273 65.7623 308.709 66.0896 308.206 66.5902C307.719 67.0914 307.371 67.6532 307.197 68.2891C307.023 68.9244 307.023 69.5635 307.197 70.2181C307.352 70.8539 307.703 71.4351 308.206 71.9357C308.709 72.4594 309.293 72.7867 309.95 72.96C310.607 73.1334 311.249 73.114 311.887 72.9402C312.545 72.7637 313.109 72.4176 313.592 71.9357C314.078 71.4351 314.427 70.8733 314.601 70.2374C314.775 69.6021 314.775 68.963 314.601 68.3277C314.427 67.6918 314.095 67.1107 313.573 66.5902C313.07 66.0864 312.486 65.7591 311.848 65.5858ZM314.617 60.3337L315.062 64.5807L312.719 62.2471L311.671 63.2902L316.902 68.5005L317.95 67.4574L315.626 65.1425L319.847 65.5637L319.829 65.5831L319.863 65.5654L319.871 65.5664L319.868 65.5632L319.863 65.5654L319.847 65.5637L321.166 64.2502L316.303 63.8263L315.877 59.078L314.617 60.3337ZM323.03 55.1846C322.334 54.8379 321.635 54.722 320.919 54.876C320.184 55.0306 319.523 55.3992 318.942 55.9771C318.436 56.4783 318.088 57.0401 317.914 57.6754C317.74 58.3113 317.74 58.9498 317.914 59.5857C318.088 60.221 318.42 60.8026 318.942 61.3033C319.465 61.8071 320.029 62.1538 320.667 62.3271C321.305 62.5004 321.947 62.5004 322.585 62.3271C323.223 62.1538 323.787 61.8039 324.29 61.3033C324.738 60.86 325.048 60.3562 325.222 59.8164C325.396 59.2583 325.434 58.7158 325.357 58.1766C325.28 57.6373 325.086 57.1329 324.797 56.709L323.884 55.8006L321.054 58.6193L321.847 59.4091L323.649 57.6148C323.939 58.0768 324.074 58.5393 324.036 59.0045C323.997 59.4698 323.784 59.8937 323.378 60.2982C323.046 60.6062 322.698 60.8182 322.311 60.9341C321.921 61.0495 321.534 61.0307 321.128 60.9148C320.719 60.7801 320.351 60.5488 320.003 60.2022C319.655 59.8523 319.423 59.4858 319.307 59.1006C319.172 58.7126 319.172 58.3274 319.268 57.9421C319.365 57.5729 319.578 57.2258 319.887 56.9178C320.18 56.6484 320.47 56.4558 320.799 56.3592C321.131 56.2631 321.461 56.2631 321.809 56.3592V56.3624L321.827 56.3817L323.03 55.1846ZM323.823 51.1909L327.175 58.2919L328.281 57.1909L327.623 55.8585L329.712 53.7787H329.731L331.069 54.4328L332.174 53.332L325.045 49.9742L323.823 51.1909ZM331.011 44.0513L334.614 47.6402L328.625 46.4235L327.578 47.4668L332.829 52.6964L333.876 51.6531L330.273 48.0641L336.242 49.2809L337.29 48.2371H337.309L332.058 43.0075L331.011 44.0513Z" fill="#DE301E"/>
<path d="M409.875 26.6809C418.362 26.6809 425.124 33.5124 425.124 41.7918L424.931 63.9266H428.264C448.107 63.9266 448.107 94.3215 428.264 94.3215H410.146C401.272 94.3215 394.413 87.6636 394.703 78.9414V41.8106C394.703 33.5506 401.466 26.6998 409.856 26.6998L409.875 26.6809Z" fill="#DE301E"/>
<path d="M366.238 31.9104C370.909 26.4882 379.009 25.0785 385.207 28.7832C389.878 31.1556 392.842 36.0966 392.842 41.7917V79.3072C392.842 87.5668 385.403 94.2248 377.767 94.2248C370.132 94.2248 364.707 89.4771 363.079 83.1084L368.89 74.1737C369.181 73.4225 368.407 72.8413 367.94 73.4225L351.449 89.4803C345.541 95.3645 335.91 95.3645 329.998 89.4803C324.187 83.6922 324.187 74.3695 329.998 68.4853L366.232 31.9136L366.238 31.9104Z" fill="#DE301E"/>
<path d="M265.191 57.904C265.461 55.4545 267.688 53.6762 270.151 53.9681C272.61 54.238 274.373 56.4563 274.103 58.909C273.832 61.3618 271.605 63.1142 269.142 62.8449C266.683 62.575 264.92 60.3567 265.191 57.904Z" fill="#DE301E"/>
<path d="M256.391 28.2828C256.604 26.4112 258.309 25.0593 260.188 25.2519C262.068 25.4639 263.444 27.1622 263.231 29.0337C263.018 30.9053 261.313 32.2572 259.434 32.0645C257.555 31.8527 256.198 30.1543 256.391 28.2828Z" fill="#DE301E"/>
<path d="M536.793 26.4304C537.064 25.4642 538.073 24.9055 539.02 25.1943C539.99 25.464 540.552 26.4687 540.261 27.4124C539.971 28.3595 538.982 28.9375 538.035 28.6486C537.064 28.3789 536.503 27.3742 536.793 26.4304Z" fill="#DE301E"/>
<path d="M309.679 24.9633C310.375 25.0405 310.9 25.6759 310.823 26.3724C310.746 27.0658 310.107 27.5892 309.408 27.5121C308.712 27.4351 308.186 26.7996 308.263 26.1031C308.341 25.4096 308.979 24.8863 309.679 24.9633Z" fill="#DE301E"/>
<path d="M480.192 24.1705C480.463 23.2042 481.472 22.6454 482.419 22.9343C483.39 23.2041 483.95 24.2088 483.66 25.1525C483.389 26.1188 482.381 26.6775 481.433 26.3886C480.463 26.119 479.902 25.1143 480.192 24.1705Z" fill="#DE301E"/>
<path d="M314.659 16.3758C314.853 14.7353 316.326 13.5379 317.992 13.7306C319.639 13.9232 320.841 15.39 320.648 17.0496C320.455 18.6901 318.982 19.8874 317.315 19.6948C315.668 19.5022 314.466 18.0354 314.659 16.3758Z" fill="#DE301E"/>
<path d="M517.124 9.11719C517.337 8.4045 518.075 7.97733 518.81 8.18917C519.525 8.40107 519.954 9.13624 519.741 9.86809C519.529 10.5808 518.79 11.008 518.056 10.7961C517.34 10.5842 516.911 9.84915 517.124 9.11719Z" fill="#DE301E"/>
<path d="M287.299 7.55656C287.396 6.6097 288.25 5.95491 289.198 6.05112C290.149 6.14738 290.807 6.9984 290.71 7.94226C290.613 8.88917 289.759 9.54402 288.811 9.44771C287.86 9.35133 287.203 8.50036 287.299 7.55656Z" fill="#DE301E"/>
<path d="M500.985 2.67406C501.469 0.995157 503.232 0.00944316 504.918 0.494182C506.604 0.975727 507.593 2.73216 507.106 4.41115C506.623 6.08996 504.86 7.07513 503.174 6.59049C501.488 6.10895 500.499 4.35305 500.985 2.67406Z" fill="#DE301E"/>
<path d="M640.616 32.2912C640.331 32.5742 639.995 32.7711 639.609 32.8821C639.228 32.9981 638.817 32.9875 638.375 32.8506C637.939 32.7186 637.502 32.4349 637.065 31.9994L636.175 31.1107L634.131 33.1425L633.065 32.079L638.388 26.7874L640.345 28.7395C640.756 29.1497 641.035 29.5698 641.182 30C641.328 30.4301 641.348 30.8399 641.242 31.2294C641.139 31.6239 640.931 31.9778 640.616 32.2912ZM637.881 31.0972C638.176 31.3908 638.46 31.5429 638.734 31.5532C639.014 31.5586 639.276 31.44 639.52 31.1974C640.038 30.6818 640.008 30.1354 639.43 29.5582L638.584 28.715L637.037 30.254L637.881 31.0972Z" fill="#DE301E"/>
<path d="M629.643 29.7822C629.048 29.4077 628.59 28.9247 628.268 28.3331C627.947 27.7415 627.796 27.109 627.815 26.4357C627.838 25.7563 628.047 25.1051 628.443 24.4821C628.834 23.8652 629.331 23.4035 629.933 23.097C630.539 22.7844 631.18 22.6457 631.854 22.6809C632.528 22.716 633.163 22.9208 633.758 23.2954C634.359 23.6737 634.818 24.1567 635.133 24.7445C635.455 25.3361 635.601 25.9697 635.572 26.6452C635.552 27.3186 635.347 27.9637 634.956 28.5806C634.56 29.2036 634.06 29.6714 633.454 29.9839C632.857 30.2942 632.222 30.4318 631.548 30.3967C630.873 30.3615 630.238 30.1567 629.643 29.7822ZM630.362 28.6482C630.745 28.8889 631.136 29.0163 631.535 29.0304C631.938 29.0384 632.323 28.9337 632.69 28.7164C633.057 28.499 633.375 28.1786 633.644 27.7552C633.913 27.3318 634.065 26.9113 634.1 26.4936C634.14 26.0698 634.067 25.6816 633.883 25.3288C633.699 24.976 633.416 24.6792 633.033 24.4385C632.65 24.1977 632.257 24.0684 631.852 24.0505C631.453 24.0364 631.07 24.1381 630.702 24.3555C630.339 24.5668 630.023 24.8842 629.754 25.3076C629.486 25.7309 629.332 26.1545 629.292 26.5782C629.253 27.002 629.323 27.3933 629.504 27.7521C629.694 28.1087 629.98 28.4074 630.362 28.6482Z" fill="#DE301E"/>
<path d="M628.42 22.7909C628.276 23.1649 628.05 23.481 627.743 23.7391C627.442 23.9997 627.063 24.1572 626.603 24.2115C626.15 24.2684 625.635 24.1865 625.059 23.9661L623.882 23.5163L622.847 26.2015L621.438 25.6632L624.133 18.6697L626.719 19.6578C627.262 19.8654 627.689 20.1358 627.999 20.4689C628.309 20.8021 628.495 21.1681 628.557 21.5672C628.625 21.9689 628.579 22.3767 628.42 22.7909ZM625.434 22.8109C625.823 22.9595 626.145 22.9829 626.4 22.881C626.657 22.7724 626.848 22.5578 626.971 22.2372C627.234 21.5559 626.983 21.0691 626.218 20.777L625.101 20.3502L624.318 22.3841L625.434 22.8109Z" fill="#DE301E"/>
<g clip-path="url(#clip0_22_400)">
<path d="M117.057 49.4626L116.102 47.8524C111.389 50.1782 109.002 52.982 109.002 56.2024C109.002 58.648 110.433 60.1384 112.761 60.1384C114.849 60.1384 116.4 58.5875 116.4 56.5003C116.4 54.6516 114.908 53.2194 113.418 53.0414C114.015 51.7884 115.208 50.5958 117.057 49.4626Z" fill="#DE301E"/>
<path d="M58.4697 85.5468H110.377H167.949V82.3857H140.802V70.6361H137.222V82.3857H107.394H58.4697V85.5468Z" fill="#DE301E"/>
<path d="M76.3392 69.8007C74.4491 70.9933 72.2227 71.988 69.6565 72.7826C67.0913 73.5784 64.3558 74.1752 61.4531 74.572L62.7659 77.4352C65.3113 77.1176 67.7477 76.6208 70.0743 75.9437C72.4008 75.2677 74.4986 74.4522 76.3689 73.4982C78.238 72.5441 79.8686 71.4604 81.2616 70.2481C82.6536 69.0357 83.708 67.7333 84.4238 66.3418C85.1395 67.7344 86.1841 69.0357 87.5562 70.2481C88.9284 71.4615 90.5589 72.5441 92.449 73.4982C94.3379 74.4522 96.4357 75.2677 98.7436 75.9437C101.05 76.6208 103.497 77.1165 106.083 77.4352L107.395 74.572C104.451 74.1752 101.698 73.5784 99.1317 72.7826C96.5666 71.988 94.3291 70.9933 92.4193 69.8007C90.5095 68.6082 89.0087 67.2167 87.9147 65.6252C86.8207 64.0358 86.2742 62.2256 86.2742 60.1977H106.023V57.0366H62.9462V60.1977H82.5755C82.5359 62.2256 81.9587 64.0358 80.8449 65.6252C79.7311 67.2156 78.2292 68.6071 76.3403 69.8007H76.3392Z" fill="#DE301E"/>
<path d="M163.892 78.3299V57.0366H120.219V60.1383H160.252V78.3299H163.892Z" fill="#DE301E"/>
<path d="M167.472 91.928V91.8093H62.3479V106.84H38.6615V91.4477C39.6994 90.8289 40.6824 90.1277 41.5994 89.3495C45.7972 85.784 48.1095 81.0215 48.1095 75.9391C48.1095 70.8568 45.7972 66.0954 41.5994 62.5288C40.1184 61.2703 38.4636 60.2162 36.6824 59.3809C38.1832 59.3182 39.6753 59.1995 41.1519 58.9852C47.0023 58.1367 52.7955 56.9529 58.4931 55.3746C69.7211 52.2641 80.6897 47.7434 90.6698 41.7103C97.9463 37.3116 105.112 32.0853 110.443 25.3708C111.97 27.3767 113.723 29.2166 115.618 30.8796C116.556 31.7017 117.534 32.4777 118.53 33.2273C127.095 40.2782 136.811 45.8045 147.066 49.9724C156.967 53.9963 168.013 56.7661 179.009 58.2202C185.231 59.0435 189.091 59.4358 192.633 59.5831C194.487 59.6601 196.697 59.8469 198.916 60.0338V61.2131C198.916 63.5993 198.359 65.9152 197.246 68.1618C196.132 70.4084 194.571 72.4967 192.562 74.4245C190.553 76.3535 188.274 77.4966 185.53 79.0463C182.785 80.5972 179.803 81.8491 176.58 82.8042L178.25 85.5476C181.868 84.4353 185.18 83.0131 188.184 81.2831C191.187 79.553 193.665 78.1726 195.812 75.9446C197.961 73.7178 199.621 71.2734 200.794 68.608C201.967 65.9448 202.554 63.0816 202.554 60.0195V57.0376C202.554 57.0376 193.578 56.5726 190.596 56.2825C189.124 56.1396 187.652 55.9857 186.182 55.8175C185.465 55.7351 184.748 55.6505 184.032 55.5603C183.262 55.4636 182.638 55.3823 182.089 55.3053C176.637 54.548 171.231 53.5105 165.902 52.1256C160.619 50.7528 155.418 49.0623 150.342 47.0575C149.721 46.8124 149.104 46.5629 148.487 46.3079C148.333 46.2442 148.179 46.1804 148.025 46.1167C147.989 46.1013 147.858 46.0463 147.79 46.0178C147.442 45.8705 147.095 45.7221 146.75 45.5715C145.526 45.0396 144.311 44.49 143.105 43.9207C140.631 42.7534 138.193 41.507 135.801 40.1814C133.244 38.7658 130.763 37.2105 128.336 35.5838C127.067 34.7331 125.815 33.8582 124.584 32.9547C124.291 32.7393 123.999 32.5228 123.709 32.3051C123.551 32.1864 123.394 32.0677 123.237 31.9479C123.206 31.9237 123.031 31.7897 122.961 31.7358C122.374 31.2786 121.793 30.8125 121.218 30.3388C121.151 30.2839 121.081 30.2333 121.008 30.1849C120.948 30.1311 120.884 30.0794 120.818 30.0289C120.682 29.9277 120.546 29.8244 120.41 29.7233C120.387 29.7068 120.368 29.6925 120.351 29.6793C120.346 29.676 120.342 29.6727 120.337 29.6684C120.113 29.4914 119.889 29.3155 119.668 29.1353C119.177 28.7374 118.696 28.3285 118.223 27.9087C117.295 27.0843 116.402 26.2182 115.556 25.3092C115.162 24.8861 114.778 24.4552 114.406 24.0134C114.22 23.7936 114.036 23.5704 113.856 23.3462C113.86 23.3528 113.77 23.2385 113.705 23.1561C113.651 23.0846 113.455 22.8263 113.427 22.7901C113.236 22.5329 113.05 22.2724 112.866 22.0086C115.528 17.9166 117.639 13.0079 117.639 8.06404C117.639 5.38438 116.771 2.05404 114.261 0.638376C112.806 -0.182667 111.1 -0.198055 109.602 0.510878C108.417 1.07143 107.467 2.07603 106.748 3.15206C105.332 5.26897 104.822 8.02337 104.827 10.5316C104.831 13.0958 105.387 15.7051 106.313 18.0913C106.826 19.4103 107.439 20.6808 108.137 21.9009C108.073 21.9888 108.008 22.0778 107.942 22.1647C107.924 22.1888 107.824 22.3185 107.775 22.3845C107.104 23.2451 106.399 24.0782 105.668 24.8872C104.083 26.6403 102.374 28.278 100.585 29.8211C99.7066 30.5795 98.8083 31.3148 97.8935 32.0304C97.8957 32.0282 97.7648 32.1293 97.6879 32.1897C97.6098 32.2491 97.5065 32.3293 97.5076 32.3282C97.2888 32.4953 97.0689 32.6613 96.8479 32.8261C96.3641 33.1877 95.8759 33.5439 95.3844 33.8945C93.5252 35.2222 91.6165 36.4807 89.6726 37.6809C85.2086 40.4397 80.5457 42.8644 75.7563 45.0077C75.1471 45.2803 74.5369 45.5473 73.9234 45.8111C73.7607 45.8815 73.598 45.9507 73.4352 46.02C73.3858 46.0409 73.3099 46.0727 73.2912 46.0804C72.9218 46.2343 72.5523 46.3871 72.1818 46.5388C70.8547 47.0795 69.5188 47.5983 68.1741 48.0962C65.52 49.0777 62.835 49.9757 60.1237 50.7869C54.7537 52.3949 49.2837 53.6688 43.7566 54.603C37.971 55.5801 32.2383 56.166 26.2053 56.6891C24.8497 56.8067 23.4929 56.92 22.1361 57.0321C12.5881 57.6904 10.366 53.8446 9.85147 51.9332C9.7932 51.5903 9.76351 51.232 9.76351 50.8539H7.12472C7.12472 53.1665 7.92516 55.1163 9.50403 56.6485C11.1115 58.2081 13.2984 59.083 15.3171 59.5721C13.6854 60.3767 12.1637 61.3659 10.7926 62.5321C6.59477 66.0976 4.28253 70.8601 4.28253 75.9424C4.28253 81.0248 6.59477 85.7862 10.7926 89.3528C11.6008 90.0387 12.4606 90.6641 13.3644 91.2268V106.843H0V110.004H106.618V94.9144H163.892V110.004H219.499V106.843H167.472V91.9324V91.928ZM111.737 3.92914C111.692 3.93354 111.647 3.93794 111.602 3.94343C111.661 3.92695 111.713 3.91815 111.737 3.92914ZM108.894 8.7356C108.896 8.72131 108.899 8.70592 108.903 8.68834C108.931 8.53226 108.957 8.37509 108.987 8.21901C109.049 7.90906 109.122 7.60131 109.206 7.29795C109.275 7.04845 109.354 6.80005 109.441 6.55604C109.476 6.45932 109.514 6.36479 109.549 6.26807C109.553 6.25928 109.555 6.25268 109.558 6.24499C109.567 6.2274 109.578 6.20762 109.59 6.18234C109.701 5.95922 109.81 5.7372 109.936 5.52177C109.998 5.41625 110.063 5.31294 110.13 5.20962C110.174 5.14147 110.353 4.91286 110.342 4.91835C110.45 4.79305 110.559 4.67105 110.677 4.55454C110.754 4.4787 110.874 4.40396 110.937 4.31603C110.938 4.31384 110.939 4.31384 110.94 4.31164C111.061 4.2336 111.189 4.15886 111.305 4.07643C111.378 4.02587 111.651 3.92365 111.282 4.06214C111.329 4.04455 111.476 3.9786 111.592 3.94343C111.669 3.93794 111.746 3.93354 111.823 3.93354C111.847 3.93024 111.866 3.92695 111.883 3.92365C111.888 3.92475 111.891 3.92585 111.896 3.92694C111.991 3.95552 112.09 3.9797 112.186 4.00498C112.198 4.00828 112.209 4.01158 112.219 4.01378C112.232 4.02477 112.247 4.03686 112.267 4.05115C112.3 4.07533 112.338 4.09951 112.375 4.12259C112.301 4.08522 112.551 4.26877 112.607 4.31933C112.631 4.34131 112.651 4.3589 112.667 4.37429C112.829 4.6051 112.969 4.8557 113.096 5.1041C113.124 5.15796 113.229 5.39867 113.231 5.39207C113.241 5.41955 113.253 5.44703 113.263 5.47451C113.35 5.71412 113.424 5.95922 113.487 6.20652C113.524 6.356 113.557 6.50768 113.587 6.65936C113.588 6.66595 113.602 6.74839 113.615 6.82643C113.625 6.91765 113.644 7.06493 113.645 7.07373C113.659 7.2364 113.669 7.39797 113.676 7.56064C113.701 8.16296 113.677 8.76747 113.625 9.36759C113.612 9.51927 113.598 9.67095 113.581 9.82263C113.578 9.85011 113.536 10.1765 113.535 10.193C113.493 10.4667 113.445 10.7382 113.383 11.0086C113.132 12.1022 112.809 13.1804 112.421 14.2334C112.331 14.4785 112.237 14.7214 112.141 14.9632C112.102 15.0599 112.062 15.1567 112.023 15.2534C112.018 15.2666 112.013 15.2776 112.009 15.2886C112 15.3072 111.99 15.3303 111.977 15.3578C111.738 15.8821 111.5 16.4053 111.239 16.9186C111.036 17.3197 110.821 17.7154 110.6 18.1078C110.506 17.9056 110.413 17.7033 110.322 17.5C110.31 17.4725 110.299 17.4494 110.29 17.4296C110.281 17.4077 110.272 17.3813 110.258 17.3494C110.196 17.1922 110.133 17.0362 110.074 16.8779C109.654 15.7733 109.321 14.6346 109.089 13.4761C109.028 13.1705 108.984 12.8628 108.927 12.5572C108.925 12.543 108.923 12.5309 108.92 12.521C108.92 12.5122 108.918 12.5034 108.917 12.4935C108.902 12.3517 108.884 12.211 108.871 12.0692C108.813 11.4779 108.783 10.8866 108.791 10.2931C108.798 9.77097 108.835 9.24999 108.895 8.7323L108.894 8.7356ZM7.36221 75.938C7.36221 67.244 15.8118 60.1701 26.1966 60.1701C36.5813 60.1701 45.0309 67.244 45.0309 75.938C45.0309 84.6321 36.5813 91.706 26.1966 91.706C15.8118 91.706 7.36221 84.6321 7.36221 75.938ZM35.0816 106.839H16.9443V93.0338C19.8052 94.179 22.9486 94.7836 26.1966 94.7836C29.4445 94.7836 32.3196 94.2296 35.0827 93.1766V106.839H35.0816ZM65.9279 106.898V94.9693H103.038V106.898" fill="#DE301E"/>
<path d="M219.361 50.8508C219.361 52.4434 218.847 53.7184 217.787 54.7483C215.759 56.7201 212.276 57.3038 210.19 57.4752V50.3309H206.67V91.8084H210.19V60.123C212.617 59.946 216.93 59.2547 219.62 56.6443C221.199 55.1121 221.999 53.1623 221.999 50.8497H219.36L219.361 50.8508Z" fill="#DE301E"/>
</g>
<defs>
<clipPath id="clip0_22_400">
<rect width="222" height="110" fill="white"/>
</clipPath>
</defs>
</svg>
